<?xml version="1.0" encoding="iso-8859-1"?>
<!-- Uploaded to: SVG Repo, www.svgrepo.com, Generator: SVG Repo Mixer Tools -->
<svg version="1.1" id="Layer_1" xmlns="http://www.w3.org/2000/svg" xmlns:xlink="http://www.w3.org/1999/xlink" 
	 viewBox="0 0 512 512" xml:space="preserve">
<path style="fill:#FF6465;" d="M153.517,217.856H141.5v90.71h102.727l0,0C244.227,258.467,203.615,217.856,153.517,217.856z"/>
<path style="fill:#C89173;" d="M80.369,325.258L80.369,325.258c0,43.154,34.983,78.139,78.139,78.139h131.746
	c43.154,0,78.139-34.983,78.139-78.139l0,0H80.369z"/>
<path style="opacity:0.1;enable-background:new    ;" d="M112.85,325.258L112.85,325.258h-32.48l0,0
	c0,43.154,34.983,78.139,78.139,78.139h32.48C147.833,403.397,112.85,368.412,112.85,325.258z"/>
<path style="opacity:0.1;enable-background:new    ;" d="M80.369,325.258c0,16.214,4.94,31.274,13.396,43.76h261.233
	c8.456-12.485,13.396-27.545,13.396-43.76l0,0H80.369L80.369,325.258z"/>
<rect x="59.688" y="308.563" style="fill:#E0A381;" width="329.394" height="33.384"/>
<rect x="59.688" y="308.563" style="opacity:0.1;enable-background:new    ;" width="32.48" height="33.384"/>
<path style="opacity:0.1;enable-background:new    ;" d="M174.382,273.462c19.693,0,37.575-7.856,50.715-20.581
	c-16.599-21.306-42.479-35.026-71.58-35.026H141.5v47.745C151.389,270.616,162.556,273.462,174.382,273.462z"/>
<path style="fill:#F0C19C;" d="M220.278,200.499c0,25.348-20.548,45.897-45.897,45.897s-45.897-20.548-45.897-45.897v-33.672
	l45.896-25.736l45.897,25.736v33.672H220.278z"/>
<path style="opacity:0.1;enable-background:new    ;" d="M142.56,200.499v-33.672l38.858-21.791l-7.037-3.946l-45.896,25.736v33.672
	c0,25.348,20.548,45.897,45.897,45.897c2.393,0,4.743-0.184,7.037-0.537C159.412,242.471,142.56,223.454,142.56,200.499z"/>
<g>
	<circle style="fill:#5A4146;" cx="154.108" cy="189.663" r="6.25"/>
	<circle style="fill:#5A4146;" cx="194.654" cy="189.663" r="6.25"/>
	<path style="fill:#5A4146;" d="M174.381,221.416c-7.812,0-14.894-2.812-18.947-7.52c-2.925-3.4-2.541-8.526,0.857-11.451
		c3.4-2.926,8.526-2.541,11.451,0.857c0.506,0.587,2.878,1.873,6.637,1.873s6.132-1.286,6.638-1.874
		c2.925-3.4,8.052-3.782,11.451-0.855c3.399,2.925,3.782,8.053,0.855,11.451C189.274,218.605,182.192,221.416,174.381,221.416z"/>
</g>
<path style="fill:#FF6465;" d="M217.721,126.349c-5.425-12.016-20.465-16.098-31.221-8.475l0,0c-7.26,5.145-16.977,5.145-24.237,0
	c-10.756-7.622-25.796-3.54-31.221,8.475l-19.655,43.529h125.988L217.721,126.349z"/>
<g style="opacity:0.1;">
	<path d="M160.964,117.031c-10.635-6.437-24.711-2.221-29.922,9.32l-19.655,43.529h21.654l19.655-43.529
		C154.53,122.286,157.468,119.133,160.964,117.031z"/>
</g>
<path style="fill:#C9CFF2;" d="M467.053,403.397v-286.76c0-4.484,3.636-8.12,8.12-8.12c4.484,0,8.12,3.636,8.12,8.12v286.76H467.053
	z"/>
<path style="fill:#C89173;" d="M265.977,311.901c-4.422,0-8.826-1.794-12.032-5.327c-6.027-6.642-5.529-16.912,1.112-22.94
	l197.177-178.936c6.642-6.028,16.913-5.529,22.94,1.112c6.027,6.642,5.529,16.912-1.112,22.94L276.886,307.687
	C273.776,310.509,269.869,311.901,265.977,311.901z"/>
<path style="fill:#E0A381;" d="M268.05,292.297l197.176-178.937c3.483-3.161,7.963-4.51,12.307-4.137
	c-0.629-1.206-1.403-2.358-2.36-3.413c-6.026-6.641-16.298-7.141-22.94-1.112L255.058,283.635c-6.642,6.026-7.14,16.298-1.112,22.94
	c2.867,3.16,6.695,4.918,10.636,5.255C261.241,305.439,262.46,297.369,268.05,292.297z"/>
<path style="fill:#7DD2F0;" d="M244.227,274.007h-42.738l-35.356-35.356c-8.457-8.457-22.167-8.457-30.622,0
	c-8.457,8.456-8.457,22.167,0,30.624l41.698,41.698c4.06,4.06,9.569,6.341,15.311,6.341h51.708l11.966-21.654L244.227,274.007z"/>
<path style="fill:#F0C19C;" d="M266.065,274.007h-21.838v43.307h21.838c11.959,0,21.654-9.694,21.654-21.654
	S278.023,274.007,266.065,274.007z"/>
<g>
	<path style="fill:#7DD2F0;" d="M503.88,411.517h-73.006c-4.484,0-8.12-3.635-8.12-8.12s3.636-8.12,8.12-8.12h73.006
		c4.484,0,8.12,3.635,8.12,8.12S508.364,411.517,503.88,411.517z"/>
	<path style="fill:#7DD2F0;" d="M379.779,411.517H73.146c-4.484,0-8.12-3.635-8.12-8.12s3.636-8.12,8.12-8.12h306.634
		c4.484,0,8.12,3.635,8.12,8.12S384.264,411.517,379.779,411.517z"/>
	<path style="fill:#7DD2F0;" d="M38.54,411.517H8.12c-4.484,0-8.12-3.635-8.12-8.12s3.636-8.12,8.12-8.12h30.42
		c4.484,0,8.12,3.635,8.12,8.12S43.024,411.517,38.54,411.517z"/>
</g>
<g>
	<path style="fill:#5A4146;" d="M111.387,169.878v42.521l0,0c13.44,0,24.336-10.896,24.336-24.336v-18.185H111.387z"/>
	<path style="fill:#5A4146;" d="M237.377,169.878v42.521l0,0c-13.44,0-24.336-10.896-24.336-24.336v-18.185H237.377z"/>
</g>
<path style="fill:#FF8080;" d="M258.384,177.998H90.38c-4.484,0-8.12-3.636-8.12-8.12s3.636-8.12,8.12-8.12h168.004
	c4.484,0,8.12,3.636,8.12,8.12S262.868,177.998,258.384,177.998z"/>
<path style="opacity:0.1;enable-background:new    ;" d="M103.913,169.878c0-4.484,3.636-8.12,8.12-8.12H90.38
	c-4.484,0-8.12,3.636-8.12,8.12s3.636,8.12,8.12,8.12h21.654C107.549,177.998,103.913,174.363,103.913,169.878z"/>
</svg>