<?xml version="1.0" encoding="utf-8"?>
<!-- Uploaded to: SVG Repo, www.svgrepo.com, Generator: SVG Repo Mixer Tools -->
<svg width="800px" height="800px" viewBox="0 0 1024 1024" class="icon"  version="1.1" xmlns="http://www.w3.org/2000/svg"><path d="M902.706449 510.327995c0 216.003968-175.097701 391.088358-391.088358 391.088358s-391.088358-175.084391-391.088358-391.088358S295.627434 119.239637 511.618091 119.239637s391.088358 175.084391 391.088358 391.088358z" fill="#67DDE0" /><path d="M749.065289 356.685811l97.771833 223.479355-111.739677-27.934664" fill="#FFFFFF" /><path d="M846.836098 594.133009a14.057946 14.057946 0 0 1-3.38906-0.415697l-111.739677-27.934664 6.779145-27.103268 84.159278 21.039819-86.37599-197.433759 25.588942-11.198234 97.771833 223.479355a13.965796 13.965796 0 0 1-12.794471 19.566448z" fill="#4D5152" /><path d="M469.715584 356.685811l-97.771834 223.479355 111.739677-27.934664" fill="#FFFFFF" /><path d="M371.942726 594.133009a13.965796 13.965796 0 0 1-12.794471-19.566448l97.771834-223.479355 25.588942 11.198234-86.374966 197.433759 84.159278-21.039819 6.779145 27.103268-111.739677 27.934664a14.06716 14.06716 0 0 1-3.390085 0.415697z" fill="#4D5152" /><path d="M609.390948 286.848641c-41.888173 0-80.353496-14.322108-111.070056-38.137681-24.116595 46.621594-42.571104 102.355768-42.571104 163.845202 0 177.430112 153.642184 349.185851 153.642184 349.185851s153.642184-171.756763 153.642184-349.185851c0-61.488409-18.455533-117.223607-42.571104-163.845202-30.719631 23.815573-69.183931 38.137681-111.072104 38.137681z" fill="#FFB957" /><path d="M720.461004 248.71096C674.999472 160.760235 609.390948 105.271794 609.390948 105.271794s-65.609548 55.488441-111.070056 143.439166c30.717584 23.815573 69.181884 38.137681 111.070056 38.137681s80.352473-14.322108 111.070056-38.137681z" fill="#FFFFFF" /><path d="M609.389924 775.709856c-3.975747 0-7.761051-1.691459-10.407794-4.657654-6.42488-7.174364-157.202233-177.804854-157.202233-358.495016 0-181.82258 152.12069-312.480586 158.593693-317.950182a13.953509 13.953509 0 0 1 18.032668 0c6.471979 5.469595 158.593694 136.127602 158.593694 317.950182 0 180.690163-150.777353 351.320652-157.202233 358.495016a13.94327 13.94327 0 0 1-10.407795 4.657654z m0-651.498232c-32.23191 30.792327-139.67434 144.257251-139.67434 288.344538 0 143.452477 105.64244 285.438751 139.667173 327.443646 34.024733-42.038684 139.681508-184.168301 139.681508-327.443646 0-144.087286-107.443454-257.55221-139.674341-288.344538z" fill="#4D5152" /><path d="M735.097445 915.384197H483.683427l125.707521-153.642184z" fill="#FFFFFF" /><path d="M735.096421 929.352041H483.682404c-5.394852 0-10.311549-3.10954-12.623483-7.986306s-1.602381-10.64636 1.814325-14.826883L598.579743 752.896668c5.305774-6.479146 16.313565-6.479146 21.619339 0l125.70752 153.642184c3.416705 4.180524 4.126258 9.950118 1.814325 14.826883s-7.229654 7.986306-12.624506 7.986306z m-221.937383-27.935688h192.461772L609.389924 783.797527l-96.230886 117.618826zM609.389924 300.816485c-44.084407 0-85.71456-14.329275-120.380245-41.43152l17.200249-22.001248c29.708033 23.222743 65.390436 35.498104 103.179996 35.498104 37.796727 0 73.46582-12.269218 103.132897-35.471483l17.213561 22.001248c-34.632921 27.089958-76.24874 41.404899-120.346458 41.404899zM595.422081 189.076807h27.934663v27.934664h-27.934663zM609.389924 398.589342c-30.001888 0-59.600365-4.508167-87.971203-13.407778l8.361048-26.652759c51.334539 16.095477 107.913418 16.095477 159.234645 0l8.361048 26.652759c-28.371862 8.899611-57.977507 13.407778-87.985538 13.407778z" fill="#4D5152" /><path d="M218.301566 468.426512h27.934664v335.219032h-27.934664zM218.301566 91.304974h27.934664v293.316524h-27.934664z" fill="#4D5152" /><path d="M344.008063 929.352041c-69.311917 0-125.707521-56.39458-125.707521-125.707521h27.934664c0 53.912682 43.860176 97.771834 97.771833 97.771833s97.771834-43.859152 97.771834-97.771833h27.934663c0.002048 69.311917-56.393556 125.707521-125.705473 125.707521zM469.715584 803.64452h-27.934663v-64.054266l-59.961797 59.961796-19.750748-19.750748 83.805014-83.805014a13.908458 13.908458 0 0 1 15.222103-3.027628 13.968867 13.968867 0 0 1 8.620091 12.903002v97.772858z" fill="#4D5152" /><path d="M190.366903 426.522981c0 23.134689 18.769866 41.902507 41.902507 41.902507 23.134689 0 41.902507-18.767818 41.902507-41.902507 0-23.132641-18.767818-41.902507-41.902507-41.902506-23.132641 0-41.902507 18.769866-41.902507 41.902506z" fill="#FFFFFF" /><path d="M232.268386 482.393332c-30.805638 0-55.869327-25.063689-55.869327-55.869327 0-30.805638 25.063689-55.869327 55.869327-55.869326s55.869327 25.063689 55.869327 55.869326c0.001024 30.805638-25.062665 55.869327-55.869327 55.869327z m0-83.80399c-15.406402 0-27.934663 12.528261-27.934663 27.934663s12.528261 27.934663 27.934663 27.934664 27.934663-12.528261 27.934663-27.934664-12.528261-27.934663-27.934663-27.934663z" fill="#4D5152" /></svg>