<?xml version="1.0" encoding="utf-8"?>

<!DOCTYPE svg PUBLIC "-//W3C//DTD SVG 1.1//EN" "http://www.w3.org/Graphics/SVG/1.1/DTD/svg11.dtd">
<!-- Uploaded to: SVG Repo, www.svgrepo.com, Generator: SVG Repo Mixer Tools -->
<svg version="1.1" id="_x32_" xmlns="http://www.w3.org/2000/svg" xmlns:xlink="http://www.w3.org/1999/xlink" 
	 width="800px" height="800px" viewBox="0 0 512 512"  xml:space="preserve">
<style type="text/css">
<![CDATA[
	.st0{fill:#000000;}
]]>
</style>
<g>
	<path class="st0" d="M429.844,20.875C417.031,8.031,399.031,0,379.438,0c-19.609,0-37.594,8.031-50.422,20.875
		c-12.859,12.813-20.891,30.813-20.875,50.406c-0.016,19.625,8.016,37.594,20.875,50.406c5.672,5.688,12.406,10.375,19.781,13.906
		v202.016c-0.016,30.172-11.781,58.578-33.141,79.984c-21.391,21.344-49.813,33.125-79.984,33.125
		c-30.188,0-58.594-11.781-79.984-33.125c-21.359-21.406-33.125-49.813-33.141-79.984c0.016-16.953,3.781-33.297,10.891-48.297
		c9.813,6.75,21.5,14.531,25.859,16.344c4.141,1.75,14.594-0.078,10.609-18.25c-5.313-24.156-0.594-53.75,8.422-90.156
		c3.047-12.281-0.609-15.719-6.813-14.375c-32,3.641-67.016,36.781-72.906,46.797l-2.828,3.766
		c-22.594,30.281-34.516,66.297-34.5,104.172c-0.016,46.609,18.125,90.406,51.063,123.313C145.25,493.859,189.031,512,235.672,512
		h0.047c46.594,0,90.375-18.141,123.281-51.078c32.953-32.906,51.078-76.703,51.063-123.313V135.563
		c7.391-3.5,14.109-8.188,19.781-13.875c12.859-12.813,20.891-30.781,20.875-50.406C450.734,51.688,442.703,33.688,429.844,20.875z
		 M393.188,85.031c-3.609,3.563-8.297,5.688-13.75,5.719c-5.453-0.031-10.156-2.156-13.75-5.719
		c-3.563-3.594-5.688-8.281-5.703-13.75c0.016-5.438,2.141-10.141,5.703-13.75c3.594-3.547,8.297-5.656,13.75-5.688
		c5.453,0.031,10.141,2.141,13.75,5.688c3.547,3.609,5.672,8.313,5.688,13.75C398.859,76.75,396.734,81.438,393.188,85.031z"/>
</g>
</svg>